<?xml version="1.0" encoding="UTF-8"?> <svg xmlns="http://www.w3.org/2000/svg" width="293" height="65" viewBox="0 0 293 65" fill="none"><path d="M52.6386 0.0697196C53.7093 -0.0792407 54.906 -0.00476055 55.8822 0.44212C56.2129 0.591081 56.9529 1.18692 57.1261 1.20182C57.4253 1.20182 58.6534 0.69535 59.0943 0.591078C68.3528 -1.64333 70.9193 3.43622 68.0379 11.1226C66.3216 15.6808 63.2827 19.9261 60.417 23.9034C61.22 25.6015 61.9443 27.1954 62.3852 29.0127C65.0147 40.0656 60.4642 51.4461 49.3005 56.2575C42.1677 59.3261 33.3501 59.2516 26.1544 56.3618C20.8953 59.4751 15.3213 63.3331 9.16477 64.644C1.5596 66.2677 -1.3376 62.1861 0.567623 55.4829C2.47285 48.7797 8.01533 42.2106 12.2824 36.6246C10.881 22.1754 23.2729 11.346 38.247 12.0014C39.8688 11.0481 41.3804 9.82661 42.955 8.78389C44.7658 7.57731 46.6237 6.43032 48.4975 5.31312L48.6392 5.05989C48.4975 2.84038 50.1665 0.412331 52.5914 0.0846188L52.6386 0.0697196ZM61.8656 3.45112C61.4247 3.49581 58.8109 4.09164 58.6534 4.31508C58.7952 8.05399 55.0162 10.482 51.3947 8.85838C51.0483 8.69452 50.6074 8.17316 50.198 8.27743C49.7886 8.38171 47.9779 9.57338 47.4898 9.8862C46.2144 10.6906 44.9704 11.5694 43.7423 12.4483C45.0492 12.925 46.4505 13.1335 47.7732 13.5804C51.9143 14.9955 55.7405 17.5279 58.4015 20.8348C59.4407 19.3452 60.5272 17.8705 61.4719 16.3213C63.2354 13.4315 66.1169 8.26253 65.613 4.91093C65.3454 3.16809 63.2984 3.30216 61.8813 3.43622L61.8656 3.45112ZM35.9797 21.669C24.2176 22.6968 20.7536 37.6524 28.1541 45.1153C28.7524 45.7111 31.0513 47.5136 31.8385 47.6327C32.1377 47.6774 32.2794 47.5434 32.4999 47.3944C34.5626 45.9942 37.2078 43.5065 39.1131 41.8084C43.0337 38.278 46.7497 34.5242 50.3082 30.6513C48.5605 24.4396 42.6558 21.088 35.9797 21.669ZM36.2946 48.8244H39.1131C39.8374 48.8244 41.6796 48.3031 42.4196 48.0498C48.1038 46.024 51.1742 40.6316 51.0168 35.0307C47.6787 38.3674 44.3564 41.7041 40.8293 44.8621C39.3335 46.2027 37.6644 47.3795 36.2788 48.8244H36.2946ZM22.6588 54.4253C17.6989 51.5653 14.5183 46.6198 12.9595 41.4211C9.84183 45.5175 6.47225 49.9714 4.63001 54.753C3.764 56.9874 2.01622 61.6648 6.07861 61.7244C10.3457 61.784 18.0453 57.4939 21.6353 55.2148C21.7613 55.1254 22.7218 54.5147 22.6588 54.4253Z" fill="#0A7CFF"></path><path d="M168.296 13.1836V42.5139C168.296 42.5139 168.501 42.7671 168.58 42.6479L188.057 13.1836H200.654V57.4099H189.506V28.2733L189.191 28.4371L169.761 57.4099H157.164V13.1836H168.312H168.296Z" fill="#0A7CFF"></path><path d="M146.264 22.1659H123.968V29.316H130.377C138.816 29.3905 147.508 32.0569 148.61 41.0987C149.996 52.5389 140.785 57.4099 129.967 57.4248H112.82V13.1836H146.059L146.264 13.3772V22.1659ZM123.968 38.2983V48.2488C124.094 48.4276 124.236 48.4276 124.441 48.4574C125.763 48.6063 128.283 48.517 129.684 48.4574C133.116 48.2786 137.447 47.1912 137.415 43.214C137.352 37.2556 128.141 38.4175 123.984 38.3132L123.968 38.2983Z" fill="#0A7CFF"></path><path d="M292.999 57.4053H280.481L276.702 48.6762L258.752 48.706L255.225 57.4053H243.18L262.72 13.2385L273.254 13.1641L273.663 13.2981L292.999 57.4053ZM262.027 40.111H273.726L267.885 25.1554L262.027 40.111Z" fill="#0A7CFF"></path><path d="M81.8443 57.4099H70.5547V13.1836H89.0716C99.3535 13.6305 106.675 17.6673 105.935 28.3477C105.368 36.4661 97.6845 40.205 89.8904 40.637C87.497 40.771 84.5998 40.3837 82.3167 40.637C82.112 40.6519 81.9703 40.6519 81.8443 40.8455V57.4397V57.4099ZM81.8443 21.7637V32.1015C81.9703 32.2803 82.112 32.2803 82.3167 32.3101C84.5054 32.5484 89.4495 32.2356 91.4807 31.461C94.2519 30.3885 95.3069 27.9158 94.5039 25.2196C93.1655 20.7955 85.4973 21.9127 81.8443 21.7637Z" fill="#0A7CFF"></path><path d="M243.585 13.1836V22.2851H230.359V57.4099H219.289L219.085 57.2162V22.2851H206V13.1836H243.585Z" fill="#0A7CFF"></path></svg>